<svg width="53" height="52" viewBox="0 0 53 52" fill="none" xmlns="http://www.w3.org/2000/svg">
<g clip-path="url(#clip0_0_217)">
<g clip-path="url(#clip1_0_217)">
<g clip-path="url(#clip2_0_217)">
<path d="M50.75 41H2.25C1.002 41 0 39.938 0 38.634V2.366C0 1.062 1.003 0 2.25 0H50.75C51.998 0 53 1.062 53 2.366V38.634C53 39.938 51.997 41 50.75 41ZM2.25 1.53C1.845 1.53 1.537 1.9 1.537 2.366V38.634C1.537 39.1 1.861 39.471 2.249 39.471H50.751C51.155 39.471 51.463 39.101 51.463 38.634V2.366C51.463 1.899 51.139 1.529 50.751 1.529H2.248L2.25 1.53ZM49.262 37.797H3.738C3.63837 37.7973 3.53967 37.7779 3.44754 37.74C3.35541 37.7021 3.27166 37.6464 3.20107 37.576C3.13049 37.5057 3.07445 37.4222 3.03618 37.3302C2.9979 37.2383 2.97813 37.1396 2.978 37.04V3.976C2.978 3.558 3.318 3.219 3.738 3.219H49.262C49.682 3.219 50.022 3.558 50.022 3.976V37.056C50.022 37.475 49.682 37.813 49.262 37.813V37.797ZM4.499 36.267H48.485V4.733H4.499V36.283V36.267Z" fill="#4EBFE9"/>
<path d="M37.271 52H15.745C15.333 52 15 51.651 15 51.22V48.032C15 47.6 15.333 47.252 15.745 47.252C18.025 47.252 19.879 45.309 19.879 42.918V39.78C19.879 39.349 20.211 39 20.623 39H31.917C32.329 39 32.662 39.349 32.662 39.78V42.437C32.662 45.093 34.722 47.252 37.255 47.252C37.667 47.252 38 47.6 38 48.032V51.22C38 51.435 37.92 51.635 37.778 51.768C37.6341 51.91 37.4421 51.9928 37.24 52H37.271ZM16.49 50.423H36.528V48.763C33.518 48.381 31.174 45.674 31.174 42.42V40.56H21.369V42.902C21.369 45.89 19.23 48.381 16.474 48.762V50.422L16.49 50.423Z" fill="#4EBFE9"/>
<mask id="mask0_0_217" style="mask-type:luminance" maskUnits="userSpaceOnUse" x="20" y="14" width="12" height="12">
<path d="M20 14H32V26H20V14Z" fill="white"/>
</mask>
<g mask="url(#mask0_0_217)">
<path d="M27.564 15.923C27.6591 15.9493 27.748 15.9941 27.8256 16.0549C27.9033 16.1157 27.9681 16.1913 28.0165 16.2773C28.0648 16.3633 28.0956 16.4579 28.1072 16.5559C28.1188 16.6538 28.1109 16.7531 28.084 16.848L25.868 24.741C25.8103 24.9276 25.682 25.0844 25.5105 25.1779C25.3389 25.2714 25.1376 25.2943 24.9494 25.2417C24.7613 25.189 24.6011 25.065 24.5029 24.896C24.4048 24.7271 24.3765 24.5265 24.424 24.337L26.639 16.442C26.6655 16.347 26.7104 16.2582 26.7712 16.1806C26.8321 16.103 26.9076 16.0382 26.9936 15.9899C27.0795 15.9416 27.1741 15.9107 27.272 15.8991C27.3699 15.8874 27.4691 15.8952 27.564 15.922V15.923ZM24.034 17.941C24.1745 18.0816 24.2534 18.2722 24.2534 18.471C24.2534 18.6697 24.1745 18.8603 24.034 19.001L22.444 20.592L24.034 22.183C24.1665 22.3251 24.2386 22.5132 24.2352 22.7075C24.2318 22.9018 24.1531 23.0872 24.0157 23.2246C23.8782 23.362 23.6929 23.4407 23.4986 23.4441C23.3043 23.4476 23.1162 23.3754 22.974 23.243L20.852 21.122C20.7116 20.9813 20.6327 20.7907 20.6327 20.592C20.6327 20.3932 20.7116 20.2026 20.852 20.062L22.973 17.94C23.0426 17.8703 23.1252 17.815 23.2162 17.7773C23.3071 17.7396 23.4046 17.7202 23.503 17.7202C23.6015 17.7202 23.699 17.7396 23.7899 17.7773C23.8808 17.815 23.9635 17.8703 24.033 17.94L24.034 17.941ZM28.474 19.001C28.4003 18.9323 28.3412 18.8495 28.3002 18.7575C28.2593 18.6655 28.2372 18.5662 28.2354 18.4655C28.2337 18.3648 28.2522 18.2647 28.2899 18.1714C28.3276 18.078 28.3838 17.9931 28.455 17.9219C28.5262 17.8507 28.611 17.7946 28.7044 17.7568C28.7978 17.7191 28.8978 17.7006 28.9986 17.7024C29.0993 17.7041 29.1986 17.7262 29.2906 17.7672C29.3826 17.8082 29.4654 17.8673 29.534 17.941L31.655 20.061C31.7247 20.1306 31.78 20.2133 31.8177 20.3043C31.8555 20.3954 31.8749 20.4929 31.8749 20.5915C31.8749 20.69 31.8555 20.7876 31.8177 20.8786C31.78 20.9696 31.7247 21.0523 31.655 21.122L29.535 23.244C29.4654 23.3137 29.3826 23.369 29.2916 23.4068C29.2005 23.4445 29.103 23.464 29.0044 23.464C28.9058 23.4641 28.8082 23.4447 28.7171 23.407C28.626 23.3694 28.5433 23.3141 28.4735 23.2445C28.4038 23.1748 28.3485 23.0921 28.3107 23.001C28.2729 22.91 28.2535 22.8124 28.2534 22.7138C28.2534 22.6152 28.2728 22.5176 28.3104 22.4265C28.3481 22.3355 28.4034 22.2527 28.473 22.183L30.064 20.592L28.474 19.001Z" fill="#4EBFE9"/>
</g>
</g>
</g>
</g>
<defs>
<clipPath id="clip0_0_217">
<rect width="53" height="52" fill="white"/>
</clipPath>
<clipPath id="clip1_0_217">
<rect width="53" height="52" fill="white"/>
</clipPath>
<clipPath id="clip2_0_217">
<rect width="53" height="52" fill="white"/>
</clipPath>
</defs>
</svg>
