<svg width="140" height="33" viewBox="0 0 140 33" fill="none" xmlns="http://www.w3.org/2000/svg">
<g clip-path="url(#clip0_0_251)">
<g clip-path="url(#clip1_0_251)">
<mask id="mask0_0_251" style="mask-type:luminance" maskUnits="userSpaceOnUse" x="0" y="0" width="69" height="33">
<path d="M68.974 32.139H0V0.251953H68.974V32.139Z" fill="white"/>
</mask>
<g mask="url(#mask0_0_251)">
<path d="M65.297 20.213C65.2731 20.3478 65.2209 20.4761 65.1439 20.5894C65.0668 20.7026 64.9667 20.7982 64.85 20.87C64.6454 21.0021 64.425 21.1079 64.194 21.185C63.748 21.344 63.274 21.501 62.774 21.685C62.277 21.869 61.804 22.053 61.357 22.184C60.832 22.368 60.332 22.525 59.886 22.708C59.5281 22.8652 59.1925 23.0689 58.888 23.314C58.6045 23.5712 58.3647 23.8728 58.178 24.207C57.968 24.574 57.864 25.02 57.864 25.572C57.864 26.675 58.127 27.49 58.652 28.042C59.176 28.566 60.148 28.854 61.568 28.854C63.012 28.854 64.01 28.566 64.535 28.014C65.06 27.437 65.322 26.649 65.322 25.598V20.213H65.297ZM61.567 8.68298C64.114 8.68298 65.98 9.18298 67.189 10.181C68.37 11.178 68.974 12.439 68.974 13.937V26.806C68.974 27.332 68.869 27.911 68.685 28.514C68.501 29.144 68.133 29.722 67.582 30.221C67.03 30.746 66.268 31.167 65.322 31.534C64.378 31.877 63.117 32.06 61.593 32.06C60.044 32.06 58.809 31.877 57.864 31.534C56.918 31.193 56.157 30.746 55.604 30.221C55.054 29.696 54.686 29.118 54.501 28.514C54.318 27.883 54.212 27.305 54.212 26.806V24.758C54.212 23.654 54.502 22.656 55.053 21.764C55.632 20.87 56.419 20.214 57.469 19.846C57.996 19.662 58.573 19.477 59.256 19.242C59.912 19.005 60.569 18.796 61.2 18.559C61.83 18.349 62.355 18.139 62.827 17.981C63.301 17.798 63.589 17.718 63.695 17.666C63.8 17.613 63.958 17.534 64.142 17.429C64.3447 17.3047 64.5303 17.1544 64.694 16.982C64.877 16.772 65.007 16.536 65.14 16.3C65.271 16.038 65.322 15.723 65.322 15.38V14.567C65.322 14.277 65.271 13.988 65.14 13.674C65.034 13.358 64.824 13.094 64.535 12.832C64.247 12.57 63.852 12.36 63.379 12.202C62.908 12.045 62.302 11.967 61.568 11.967C60.122 11.967 59.151 12.255 58.625 12.859C58.1723 13.3892 57.9054 14.0529 57.865 14.749C57.865 14.909 57.732 15.013 57.575 15.013H54.423C54.3463 15.0127 54.2729 14.9822 54.2186 14.9281C54.1643 14.874 54.1335 14.8006 54.133 14.724V13.962C54.133 13.228 54.265 12.544 54.555 11.914C54.817 11.284 55.265 10.706 55.895 10.234C56.498 9.75998 57.26 9.36598 58.205 9.10398C59.151 8.84098 60.255 8.68198 61.568 8.68198L61.567 8.68298ZM11.164 20.213C11.1396 20.3477 11.0872 20.4757 11.0102 20.5889C10.9332 20.7021 10.8333 20.7978 10.717 20.87C10.5119 21.0023 10.2908 21.1082 10.059 21.185C9.612 21.344 9.14 21.501 8.641 21.685C8.141 21.869 7.669 22.053 7.223 22.184C6.697 22.368 6.198 22.525 5.753 22.708C5.39455 22.8647 5.05859 23.0685 4.754 23.314C4.47103 23.5714 4.2316 23.873 4.045 24.207C3.835 24.574 3.729 25.02 3.729 25.572C3.729 26.675 3.992 27.49 4.519 28.042C5.043 28.566 6.015 28.854 7.432 28.854C8.878 28.854 9.876 28.566 10.402 28.014C10.927 27.437 11.189 26.649 11.189 25.598V20.213H11.164ZM7.432 8.68298C9.981 8.68298 11.845 9.18298 13.053 10.181C14.236 11.178 14.84 12.439 14.84 13.937V26.806C14.84 27.332 14.735 27.911 14.551 28.514C14.368 29.144 13.999 29.722 13.449 30.221C12.897 30.746 12.135 31.167 11.189 31.534C10.243 31.877 8.984 32.06 7.46 32.06C5.909 32.06 4.675 31.877 3.729 31.534C2.784 31.193 2.023 30.746 1.471 30.221C0.919 29.696 0.551 29.118 0.368 28.514C0.184 27.883 0.079 27.305 0.079 26.806V24.758C0.0707413 23.7007 0.36197 22.6627 0.919 21.764C1.496 20.87 2.286 20.214 3.336 19.846C3.861 19.662 4.438 19.477 5.122 19.242C5.778 19.005 6.435 18.796 7.066 18.559C7.696 18.349 8.222 18.139 8.694 17.981C9.167 17.798 9.456 17.718 9.561 17.666C9.666 17.613 9.823 17.534 10.008 17.429C10.2102 17.3049 10.3952 17.1546 10.558 16.982C10.743 16.772 10.873 16.536 11.005 16.3C11.137 16.038 11.189 15.723 11.189 15.38V14.567C11.189 14.277 11.137 13.988 11.005 13.674C10.901 13.358 10.69 13.094 10.402 12.832C10.112 12.57 9.718 12.36 9.246 12.202C8.773 12.045 8.168 11.967 7.432 11.967C5.989 11.967 5.017 12.255 4.492 12.859C4.03922 13.3894 3.7714 14.0528 3.729 14.749C3.729 14.909 3.599 15.013 3.441 15.013H0.288C0.211769 15.0119 0.138967 14.9811 0.0851522 14.9271C0.031337 14.8731 0.000776172 14.8002 0 14.724L0 13.962C0 13.228 0.132 12.544 0.42 11.914C0.683 11.284 1.13 10.706 1.759 10.234C2.364 9.75998 3.126 9.36598 4.072 9.10398C4.991 8.84098 6.12 8.68298 7.432 8.68298ZM50.378 8.68298H52.478C52.663 8.68298 52.795 8.86598 52.741 9.05098L52.032 11.782C52.006 11.914 51.876 11.992 51.77 11.992H50.299C49.511 11.992 48.881 12.097 48.382 12.307C47.91 12.517 47.514 12.754 47.252 13.043C47.0185 13.2879 46.8471 13.5852 46.752 13.91C46.6822 14.1937 46.6476 14.4848 46.649 14.777V31.85C46.648 31.9265 46.617 31.9995 46.5629 32.0535C46.5087 32.1075 46.4355 32.1382 46.359 32.139H43.208C43.1312 32.1385 43.0578 32.1077 43.0035 32.0535C42.9492 31.9992 42.9185 31.9257 42.918 31.849V14.042C42.918 13.727 42.971 13.254 43.102 12.65C43.208 12.046 43.522 11.468 44.022 10.863C44.52 10.286 45.256 9.76098 46.255 9.34098C47.226 8.89398 48.619 8.68298 50.378 8.68298ZM39.741 25.993V26.78C39.741 27.121 39.688 27.595 39.557 28.199C39.451 28.776 39.136 29.381 38.637 29.959C38.137 30.536 37.403 31.061 36.404 31.482C35.407 31.902 34.04 32.112 32.281 32.112C30.521 32.112 29.156 31.902 28.157 31.482C27.159 31.062 26.424 30.562 25.924 29.959C25.424 29.381 25.11 28.776 25.006 28.173C24.9 27.568 24.821 27.121 24.821 26.78V8.97198C24.821 8.81398 24.953 8.68198 25.11 8.68198H28.236C28.394 8.68198 28.525 8.81398 28.525 8.97198V25.65C28.525 26.203 28.603 26.596 28.682 26.912C28.762 27.227 28.919 27.542 29.156 27.805C29.392 28.093 29.759 28.329 30.258 28.514C30.731 28.698 31.388 28.803 32.202 28.803C33.042 28.803 33.725 28.698 34.224 28.513C34.724 28.329 35.092 28.093 35.354 27.83C35.617 27.568 35.801 27.28 35.879 26.965C35.957 26.649 36.064 26.386 36.064 25.625V8.97098C36.064 8.81298 36.194 8.68098 36.352 8.68098H39.477C39.635 8.68098 39.767 8.81298 39.767 8.97098V25.992L39.741 25.993ZM18.254 0.250977H21.38C21.538 0.250977 21.669 0.382977 21.669 0.540977V31.823C21.669 31.98 21.538 32.113 21.38 32.113H18.254C18.1774 32.1122 18.1042 32.0814 18.0502 32.0271C17.9961 31.9729 17.9655 31.8996 17.965 31.823V0.539977C17.965 0.382977 18.096 0.250977 18.254 0.250977Z" fill="#384652"/>
</g>
<path d="M83.835 14.717V14.367C83.835 13.007 83.633 12.107 83.228 11.665C82.822 11.225 81.952 11.005 80.616 11.005H77.754C76.42 11.005 75.55 11.225 75.144 11.665C74.739 12.106 74.535 13.007 74.535 14.367V16.156C74.535 17.513 74.739 18.402 75.144 18.819C75.55 19.237 76.42 19.445 77.754 19.445H80.616C82.596 19.445 83.984 19.839 84.783 20.626C85.581 21.413 85.981 22.783 85.981 24.738V26.527C85.981 28.483 85.581 29.867 84.783 30.675C83.983 31.487 82.596 31.892 80.616 31.892H77.754C75.776 31.892 74.386 31.487 73.588 30.675C72.789 29.866 72.389 28.483 72.389 26.527V26.177H74.535V26.527C74.535 27.887 74.739 28.787 75.144 29.227C75.55 29.669 76.42 29.89 77.754 29.89H80.616C81.952 29.89 82.822 29.67 83.228 29.228C83.633 28.786 83.835 27.886 83.835 26.527V24.738C83.835 23.381 83.633 22.492 83.228 22.074C82.822 21.657 81.952 21.448 80.616 21.448H77.754C75.776 21.448 74.386 21.055 73.588 20.268C72.789 19.481 72.389 18.11 72.389 16.156V14.366C72.389 12.412 72.789 11.029 73.589 10.218C74.386 9.40695 75.776 9.00195 77.754 9.00195H80.616C82.596 9.00195 83.984 9.40695 84.783 10.218C85.581 11.028 85.981 12.412 85.981 14.367V14.717H83.835Z" fill="#F6543B"/>
<path d="M98.698 29.89V31.892H94.048C92.07 31.892 90.682 31.487 89.883 30.675C89.083 29.866 88.683 28.483 88.683 26.527V4.70996H90.83V9.00296H98.341V11.005H90.83V26.528C90.83 27.888 91.032 28.788 91.438 29.228C91.844 29.67 92.714 29.891 94.048 29.891L98.698 29.89Z" fill="#FAC900"/>
<path d="M111.812 21.448H105.732C104.396 21.448 103.528 21.656 103.122 22.074C102.716 22.492 102.513 23.381 102.513 24.738V26.528C102.513 27.887 102.716 28.787 103.122 29.228C103.528 29.669 104.396 29.89 105.732 29.89H108.592C109.929 29.89 110.8 29.67 111.204 29.228C111.611 28.787 111.812 27.887 111.812 26.528V21.448ZM112.762 10.218C113.559 11.028 113.959 12.411 113.959 14.368V26.528C113.959 28.482 113.559 29.865 112.761 30.675C111.961 31.487 110.572 31.892 108.593 31.892H105.731C103.754 31.892 102.364 31.487 101.566 30.675C100.766 29.865 100.366 28.482 100.366 26.527V24.738C100.366 22.783 100.766 21.413 101.566 20.626C102.364 19.839 103.754 19.446 105.731 19.446H111.811V14.367C111.811 13.007 111.611 12.107 111.204 11.665C110.8 11.225 109.929 11.005 108.593 11.005H105.731C104.396 11.005 103.528 11.225 103.121 11.665C102.716 12.107 102.513 13.008 102.513 14.367V14.717H100.366V14.367C100.366 12.411 100.766 11.028 101.566 10.218C102.364 9.40795 103.754 9.00195 105.731 9.00195H108.593C110.573 9.00195 111.963 9.40695 112.762 10.218Z" fill="#4EBFE9"/>
<path d="M126.58 11.004H121.931C120.597 11.004 119.727 11.225 119.321 11.665C118.916 12.107 118.712 13.008 118.712 14.367V31.892H116.565V14.367C116.565 12.411 116.965 11.027 117.765 10.218C118.565 9.40795 119.953 9.00195 121.931 9.00195H126.581L126.58 11.004Z" fill="#C75EEB"/>
<mask id="mask1_0_251" style="mask-type:luminance" maskUnits="userSpaceOnUse" x="129" y="4" width="11" height="28">
<path d="M139.266 31.893V4.70996H129.251V31.893H139.266Z" fill="white"/>
</mask>
<g mask="url(#mask1_0_251)">
<path d="M139.267 29.89V31.893H134.617C132.637 31.893 131.249 31.488 130.45 30.676C129.65 29.866 129.251 28.484 129.251 26.528V4.70996H131.397V9.00196H138.909V11.006H131.397V26.529C131.397 27.888 131.6 28.788 132.007 29.229C132.411 29.671 133.281 29.891 134.617 29.891L139.267 29.89Z" fill="#61E061"/>
</g>
</g>
</g>
<defs>
<clipPath id="clip0_0_251">
<rect width="140" height="33" fill="white"/>
</clipPath>
<clipPath id="clip1_0_251">
<rect width="140" height="33" fill="white"/>
</clipPath>
</defs>
</svg>
