<svg width="52" height="52" viewBox="0 0 52 52" fill="none" xmlns="http://www.w3.org/2000/svg">
<g clip-path="url(#clip0_0_206)">
<g clip-path="url(#clip1_0_206)">
<g clip-path="url(#clip2_0_206)">
<path d="M25.78 40.914C25.78 40.914 25.516 40.914 25.383 40.835C25.2288 40.7736 25.091 40.6771 24.9806 40.5532C24.8702 40.4292 24.7902 40.2812 24.747 40.121C24.747 40.068 23.607 35.516 19.976 31.89C16.317 28.238 11.784 27.126 11.731 27.126C11.5654 27.0876 11.4114 27.0099 11.2823 26.8993C11.1531 26.7888 11.0525 26.6487 10.989 26.491C10.9229 26.3378 10.8956 26.1707 10.9096 26.0045C10.9235 25.8382 10.9783 25.678 11.069 25.538C27.292 0.319 50.593 0 50.832 0C51.123 0 51.388 0.106 51.574 0.318C51.76 0.503 51.892 0.794 51.892 1.058C51.892 1.297 51.574 24.559 26.312 40.756C26.1447 40.8603 25.9512 40.9151 25.754 40.914H25.78ZM13.64 25.512C15.443 26.147 18.677 27.602 21.46 30.408C24.27 33.213 25.728 36.416 26.364 38.215C46.431 24.745 49.347 6.775 49.744 2.144C45.106 2.567 27.106 5.452 13.614 25.486L13.64 25.512Z" fill="#F6543B"/>
<path d="M1.054 23.633C0.710997 23.633 0.393997 23.474 0.181997 23.184C0.0679957 23.0178 0.00475198 22.822 -4.1455e-05 22.6205C-0.00483489 22.419 0.0490285 22.2205 0.154997 22.049C8.88 7.80002 23.63 11.758 23.788 11.784C24.343 11.943 24.66 12.524 24.501 13.077C24.343 13.632 23.761 13.975 23.206 13.817C22.704 13.684 11.205 10.65 3.301 21.152C8.165 20.36 14.456 19.727 15.778 21.495C16.122 21.97 16.042 22.603 15.566 22.946C15.3447 23.1086 15.0683 23.1776 14.7965 23.1383C14.5247 23.0991 14.2793 22.9546 14.113 22.736C13.293 22.076 7.372 22.471 1.239 23.633H1.054ZM29.473 52C29.2559 52.004 29.0431 51.9392 28.865 51.815C28.6997 51.6992 28.5717 51.5378 28.4966 51.3504C28.4215 51.1631 28.4025 50.9579 28.442 50.76C29.605 44.638 30.002 38.727 29.314 37.883C28.838 37.539 28.786 36.906 29.129 36.431C29.212 36.319 29.3169 36.225 29.4373 36.1547C29.5577 36.0844 29.6911 36.0392 29.8294 36.0219C29.9678 36.0046 30.1082 36.0155 30.2422 36.0541C30.3762 36.0926 30.501 36.1579 30.609 36.246C32.381 37.566 31.746 43.846 30.953 48.702C41.5 40.732 38.328 28.963 38.302 28.832C38.2345 28.5686 38.2722 28.2892 38.4072 28.0531C38.5422 27.817 38.7638 27.6428 39.0251 27.5674C39.2864 27.4919 39.5668 27.5212 39.8068 27.649C40.0469 27.7769 40.2277 27.9931 40.311 28.252C40.364 28.409 44.302 43.134 30.028 51.842C29.869 51.947 29.658 52 29.473 52ZM46.07 18.716C45.7927 18.7155 45.5269 18.6053 45.3306 18.4095C45.1342 18.2138 45.0233 17.9483 45.022 17.671C45.022 14.197 44.025 11.48 42.111 9.65102C38.964 6.67302 34.296 6.85602 34.243 6.88202C33.64 6.88202 33.194 6.46402 33.142 5.88902C33.1327 5.61681 33.2281 5.3514 33.4085 5.14736C33.589 4.94332 33.8407 4.81616 34.112 4.79202C34.348 4.79202 39.698 4.53102 43.501 8.13602C45.887 10.383 47.093 13.596 47.093 17.671C47.0917 17.9485 46.9806 18.2141 46.784 18.4099C46.5875 18.6057 46.3214 18.7158 46.044 18.716H46.07ZM31.399 26.96C29.6723 26.9648 28.0108 26.3007 26.763 25.107C26.1591 24.5335 25.6782 23.8431 25.3496 23.0778C25.0209 22.3125 24.8515 21.4884 24.8515 20.6555C24.8515 19.8227 25.0209 18.9985 25.3496 18.2332C25.6782 17.468 26.1591 16.7775 26.763 16.204C29.311 13.75 33.459 13.75 36.007 16.204C37.254 17.405 37.932 18.972 37.932 20.669C37.932 22.366 37.254 23.932 36.007 25.133C34.76 26.333 33.052 26.986 31.372 26.986L31.399 26.96ZM31.399 16.44C30.287 16.44 29.149 16.857 28.281 17.666C27.8761 18.0516 27.5537 18.5154 27.3335 19.0292C27.1132 19.5431 26.9996 20.0964 26.9996 20.6555C26.9996 21.2146 27.1132 21.7679 27.3335 22.2818C27.5537 22.7957 27.8761 23.2595 28.281 23.645C29.989 25.289 32.781 25.289 34.489 23.645C34.8963 23.2589 35.2197 22.793 35.4389 22.2763C35.6581 21.7596 35.7684 21.2033 35.763 20.642C35.763 19.494 35.303 18.45 34.489 17.64C33.676 16.83 32.51 16.413 31.372 16.413L31.399 16.439V16.44ZM7.405 45.667C7.14 45.667 6.876 45.561 6.665 45.35C6.4742 45.1513 6.36765 44.8865 6.36765 44.611C6.36765 44.3355 6.4742 44.0707 6.665 43.872L17.265 33.291C17.4643 33.1005 17.7293 32.9943 18.005 32.9943C18.2807 32.9943 18.5457 33.1005 18.745 33.291C18.9358 33.4897 19.0423 33.7545 19.0423 34.03C19.0423 34.3055 18.9358 34.5703 18.745 34.769L8.145 45.35C8.04874 45.4492 7.93377 45.5282 7.80675 45.5826C7.67973 45.6371 7.54318 45.6657 7.405 45.667ZM15.78 44.849C15.515 44.849 15.251 44.743 15.04 44.532C14.8492 44.3333 14.7427 44.0685 14.7427 43.793C14.7427 43.5175 14.8492 43.2527 15.04 43.054L20.67 37.434C20.8693 37.2435 21.1343 37.1373 21.41 37.1373C21.6857 37.1373 21.9507 37.2435 22.15 37.434C22.3407 37.6326 22.4473 37.8972 22.4473 38.1725C22.4473 38.4478 22.3407 38.7125 22.15 38.911L16.52 44.532C16.4237 44.6312 16.3088 44.7102 16.1817 44.7646C16.0547 44.819 15.9182 44.8477 15.78 44.849ZM8.248 37.328C7.984 37.328 7.72 37.222 7.508 37.011C7.3172 36.8123 7.21065 36.5475 7.21065 36.272C7.21065 35.9965 7.3172 35.7317 7.508 35.533L13.138 29.913C13.3373 29.7223 13.6026 29.6158 13.8785 29.6158C14.1544 29.6158 14.4197 29.7223 14.619 29.913C14.8098 30.1117 14.9163 30.3765 14.9163 30.652C14.9163 30.9275 14.8098 31.1923 14.619 31.391L8.989 37.011C8.89274 37.1102 8.77777 37.1892 8.65075 37.2436C8.52373 37.298 8.38618 37.3267 8.248 37.328Z" fill="#F6543B"/>
</g>
</g>
</g>
<defs>
<clipPath id="clip0_0_206">
<rect width="52" height="52" fill="white"/>
</clipPath>
<clipPath id="clip1_0_206">
<rect width="52" height="52" fill="white"/>
</clipPath>
<clipPath id="clip2_0_206">
<rect width="52" height="52" fill="white"/>
</clipPath>
</defs>
</svg>
